# xmcd CD database file
#
# Track frame offsets:
#	150
#	2618
#	26577
#	31416
#	44981
#	68204
#	93123
#	114498
#	134179
#	169896
#	172529
#
# Disc length: 2627 seconds
#
# Revision: 0
# Processed by: cddbd v1.5.2PL0 Copyright (c) Steve Scherf et al.
# Submitted via: CDex 1.86
#
DISCID=8e0a410b
DTITLE=Robert Earl Keen - Live Dinner Reunion Disc 2
DYEAR=2016
DGENRE=Country
TTITLE0=Boys In The Band
TTITLE1=Shade of Gray
TTITLE2=Deliverance Dry Cleaning
TTITLE3=Ninety Nine Years for One Dark Day
TTITLE4=Amarillo Highway
TTITLE5=Wild Wind (with Cody Braun)
TTITLE6=Merry Christmas From The Fam-O-Lee
TTITLE7=Corpus Christi Bay
TTITLE8=Lonely Feelin' (with Cody Canada)
TTITLE9=Grateful Cred
TTITLE10=The Road Goes On Forever (with Joe Ely)
EXTD=YEAR: 2016
EXTT0=
EXTT1=
EXTT2=
EXTT3=
EXTT4=
EXTT5=
EXTT6=
EXTT7=
EXTT8=
EXTT9=
EXTT10=
PLAYORDER=
